<?xml version="1.0" encoding="UTF-8"?>
<svg xmlns="http://www.w3.org/2000/svg" xmlns:xlink="http://www.w3.org/1999/xlink" width="57pt" height="57pt" viewBox="0 0 57 57" version="1.1">
<g id="surface1">
<path style=" stroke:none;fill-rule:nonzero;fill:rgb(0%,0%,0%);fill-opacity:1;" d="M 0 28.480469 L 0 56.964844 L 57 56.964844 L 57 0 L 0 0 Z M 33.796875 16.566406 C 33.796875 16.726562 29.046875 24.828125 28.792969 25.101562 C 28.609375 25.28125 28.117188 24.558594 26.363281 21.664062 C 24.261719 18.175781 23.566406 16.945312 23.566406 16.746094 C 23.566406 16.601562 25.46875 16.527344 29.832031 16.492188 C 32.007812 16.472656 33.796875 16.511719 33.796875 16.566406 Z M 16.480469 21.066406 C 17.0625 21.210938 17.886719 21.5 18.304688 21.71875 C 19.492188 22.316406 20.953125 23.886719 21.613281 25.261719 C 22.160156 26.402344 22.195312 26.636719 22.195312 28.390625 C 22.195312 30.144531 22.160156 30.378906 21.613281 31.5 C 20.828125 33.148438 19.546875 34.378906 17.757812 35.226562 C 16.386719 35.878906 16.296875 35.894531 13.847656 35.949219 L 11.328125 36.023438 L 11.328125 20.578125 L 13.390625 20.707031 C 14.503906 20.761719 15.914062 20.941406 16.480469 21.066406 Z M 45.855469 28.320312 L 45.855469 36.023438 L 43.351562 35.949219 C 40.90625 35.894531 40.796875 35.878906 39.425781 35.226562 C 37.542969 34.339844 36.519531 33.363281 35.660156 31.683594 C 35.003906 30.363281 34.984375 30.234375 34.984375 28.410156 C 34.984375 26.710938 35.039062 26.382812 35.480469 25.460938 C 36.117188 24.105469 36.792969 23.238281 37.855469 22.40625 C 39.261719 21.300781 40.484375 20.941406 43.207031 20.796875 C 44.523438 20.722656 45.636719 20.667969 45.726562 20.652344 C 45.800781 20.632812 45.855469 24.085938 45.855469 28.320312 Z M 31.40625 36.023438 C 32.71875 38.265625 33.796875 40.164062 33.796875 40.21875 C 33.796875 40.273438 31.460938 40.328125 28.589844 40.328125 C 25.722656 40.328125 23.382812 40.273438 23.382812 40.21875 C 23.382812 40.109375 27.183594 33.582031 28.007812 32.316406 C 28.445312 31.59375 28.589844 31.484375 28.792969 31.683594 C 28.902344 31.808594 30.089844 33.761719 31.40625 36.023438 Z M 31.40625 36.023438 "/>
</g>
</svg>
